# File created by Blade
# Date/Time:  Wed Apr 08 14:54:55 2015
#---------------------------------------------------------
:version 1.10
:name HOM
:units
  mass 1.0
  length 1.000000
  angle deg
:documentation
     Acclaim Skeleton File
:root
   axis xyz
   order TX TY TZ RX RY RZ
   position 0.000000 0.000000 0.000000
   orientation 0 0 0
:bonedata
   begin
      id 1
      name Spine_dum
      direction 0.000000 1.000000 0.000000
      length 4.885285
      axis 0.0 0.0 0.0 xyz
   end
   begin
      id 2
      name LeftUpLeg_dum
      direction 1.000000 0.000000 0.000000
      length 2.672193
      axis 0.0 0.0 0.0 xyz
   end
   begin
      id 3
      name RightUpLeg_dum
      direction -1.000000 0.000000 0.000000
      length 2.672193
      axis 0.0 0.0 0.0 xyz
   end
   begin
      id 4
      name Spine
      direction 0.000000 1.000000 0.000000
      length 0.000000
      axis 0.0 0.0 0.0 xyz
      dof rx ry rz
   end
   begin
      id 5
      name Spine_dum1
      direction 0.000000 1.000000 0.000000
      length 16.494159
      axis 0.0 0.0 0.0 xyz
   end
   begin
      id 6
      name Spine_dum2
      direction 0.000000 1.000000 0.000000
      length 10.663448
      axis 0.0 0.0 0.0 xyz
   end
   begin
      id 7
      name Spine_dum3
      direction 0.000000 1.000000 0.000000
      length 10.663448
      axis 0.0 0.0 0.0 xyz
   end
   begin
      id 8
      name Head
      direction 0.000000 1.000000 0.000000
      length 4.527550
      axis 0.0 0.0 0.0 xyz
      dof rx ry rz
   end
   begin
      id 9
      name LeftShoulder
      direction 1.000000 0.000000 0.000000
      length 7.531907
      axis 0.0 0.0 -90.0 xyz
      dof rx ry rz
   end
   begin
      id 10
      name LeftArm
      direction 1.000000 0.000000 0.000000
      length 10.229199
      axis 0.0 0.0 -90.0 xyz
      dof rx ry rz
   end
   begin
      id 11
      name LeftForeArm
      direction 1.000000 0.000000 0.000000
      length 8.673495
      axis 0.0 0.0 -90.0 xyz
      dof ry rz rx
   end
   begin
      id 12
      name LeftHand
      direction 0.000000 0.000000 0.000000
      length 0.000000
      axis 0.0 0.0 -90.0 xyz
      dof rx ry rz
   end
   begin
      id 13
      name LeftHand_dum1
      direction 0.000000 0.000000 0.000000
      length 0.000000
      axis 0.0 0.0 -90.0 xyz
   end
   begin
      id 14
      name LeftHand_dum2
      direction 1.000000 0.000000 0.000000
      length 3.937000
      axis 0.0 0.0 -90.0 xyz
   end
   begin
      id 15
      name LeftHandThumb1
      direction 0.000000 0.000000 1.000000
      length 3.937000
      axis 0.0 0.0 -90.0 xyz
      dof rx rz ry
   end
   begin
      id 16
      name RightShoulder
      direction -1.000000 0.000000 0.000000
      length 7.531907
      axis 0.0 0.0 90.0 xyz
      dof rx ry rz
   end
   begin
      id 17
      name RightArm
      direction -1.000000 0.000000 0.000000
      length 10.229199
      axis 0.0 0.0 90.0 xyz
      dof rx ry rz
   end
   begin
      id 18
      name RightForeArm
      direction -1.000000 0.000000 0.000000
      length 8.673495
      axis 0.0 0.0 90.0 xyz
      dof ry rz rx
   end
   begin
      id 19
      name RightHand
      direction 0.000000 0.000000 0.000000
      length 0.000000
      axis 0.0 0.0 90.0 xyz
      dof rx ry rz
   end
   begin
      id 20
      name RightHand_dum1
      direction 0.000000 0.000000 0.000000
      length 0.000000
      axis 0.0 0.0 90.0 xyz
   end
   begin
      id 21
      name RightHand_dum2
      direction -1.000000 0.000000 0.000000
      length 3.937000
      axis 0.0 0.0 90.0 xyz
   end
   begin
      id 22
      name RightHandThumb1
      direction 0.000000 0.000000 1.000000
      length 3.937000
      axis 0.0 0.0 90.0 xyz
      dof rx rz ry
   end
   begin
      id 23
      name LeftUpLeg
      direction 0.000000 -1.000000 0.000000
      length 16.263388
      axis 0.0 0.0 0.0 xyz
      dof rx ry rz
   end
   begin
      id 24
      name LeftLeg
      direction 0.000000 -1.000000 0.000000
      length 14.328163
      axis 0.0 0.0 0.0 xyz
      dof rx ry rz
   end
   begin
      id 25
      name LeftFoot
      direction 0.000000 -0.258819 0.965926
      length 5.031290
      axis 15.0 0.0 0.0 xyz
      dof rx ry rz
   end
   begin
      id 26
      name LeftToeBase
      direction 0.000000 0.000000 1.000000
      length 2.952750
      axis 0.0 0.0 0.0 xyz
      dof rx ry rz
   end
   begin
      id 27
      name RightUpLeg
      direction 0.000000 -1.000000 0.000000
      length 16.263388
      axis 0.0 0.0 0.0 xyz
      dof rx ry rz
   end
   begin
      id 28
      name RightLeg
      direction 0.000000 -1.000000 0.000000
      length 14.328163
      axis 0.0 0.0 0.0 xyz
      dof rx ry rz
   end
   begin
      id 29
      name RightFoot
      direction 0.000000 -0.258819 0.965926
      length 5.031290
      axis 15.0 0.0 0.0 xyz
      dof rx ry rz
   end
   begin
      id 30
      name RightToeBase
      direction 0.000000 0.000000 1.000000
      length 2.952750
      axis 0.0 0.0 0.0 xyz
      dof rx ry rz
   end
:hierarchy
   begin
      root Spine_dum LeftUpLeg_dum RightUpLeg_dum
      Spine_dum Spine
      LeftUpLeg_dum LeftUpLeg
      RightUpLeg_dum RightUpLeg
      Spine Spine_dum1 Spine_dum2 Spine_dum3
      Spine_dum1 Head
      Spine_dum2 LeftShoulder
      Spine_dum3 RightShoulder
      LeftShoulder LeftArm
      LeftArm LeftForeArm
      LeftForeArm LeftHand
      LeftHand LeftHand_dum1 LeftHand_dum2
      LeftHand_dum1 LeftHandThumb1
      RightShoulder RightArm
      RightArm RightForeArm
      RightForeArm RightHand
      RightHand RightHand_dum1 RightHand_dum2
      RightHand_dum1 RightHandThumb1
      LeftUpLeg LeftLeg
      LeftLeg LeftFoot
      LeftFoot LeftToeBase
      RightUpLeg RightLeg
      RightLeg RightFoot
      RightFoot RightToeBase
   end

# File created by Blade
# Date/Time:  Wed Apr 08 14:55:03 2015
# Frame Rate: 120.000 fps
#------------------------------------------------------
:FULLY-SPECIFIED
:DEGREES
514
root 4.181782 31.306554 -9.434649 18.794413 0.998690 -3.782351
Spine -9.157194 2.572859 -2.846227
Head 3.434714 -12.219768 5.307661
LeftShoulder -21.441484 49.471197 5.169258
LeftArm 47.995017 6.683459 -74.257101
LeftForeArm 1.825643 -0.000000 119.106346
LeftHand 12.375015 -0.000000 13.787079
LeftHandThumb1 -26.253704 0.000000 33.147579
RightShoulder -4.560489 -7.718536 -18.244065
RightArm 19.719713 -34.299965 78.009214
RightForeArm -1.335768 -0.000000 110.510326
RightHand 14.614367 -0.000000 -13.305573
RightHandThumb1 -24.326973 -0.000000 -32.862282
LeftUpLeg -43.150995 1.462932 3.170779
LeftLeg 12.344765 -0.000000 -0.000000
LeftFoot 7.037018 10.553754 -20.367643
LeftToeBase -2.788925 -0.000000 0.000000
RightUpLeg 2.229400 1.453416 6.332469
RightLeg 14.656977 -0.000000 -0.000000
RightFoot -4.050878 -17.024534 1.453249
RightToeBase -31.495757 -0.000000 0.000000
515
root 4.123404 31.244112 -9.688220 18.647483 1.054787 -4.006595
Spine -9.003961 2.645739 -2.530419
Head 3.863709 -12.215625 4.916021
LeftShoulder -21.538310 49.375094 4.992064
LeftArm 48.019482 6.672648 -74.433127
LeftForeArm 1.831456 -0.000000 119.205810
LeftHand 12.698097 -0.000000 13.802260
LeftHandThumb1 -26.253704 0.000000 33.147579
RightShoulder -4.578497 -7.748264 -18.290049
RightArm 19.778079 -34.335931 78.012765
RightForeArm -1.311846 -0.000000 110.634848
RightHand 14.640650 -0.000000 -13.339869
RightHandThumb1 -24.326973 -0.000000 -32.862282
LeftUpLeg -43.649012 1.498509 3.498224
LeftLeg 12.615870 -0.000000 -0.000000
LeftFoot 7.764019 10.675481 -20.073858
LeftToeBase -3.361244 -0.000000 0.000000
RightUpLeg 2.694612 1.386405 6.704753
RightLeg 13.544866 -0.000000 -0.000000
RightFoot -5.352049 -17.196216 1.972244
RightToeBase -29.953019 -0.000000 0.000000
516
root 4.070404 31.182786 -9.940683 18.524126 1.109096 -4.184595
Spine -8.877734 2.668101 -2.240366
Head 4.278047 -12.156034 4.495114
LeftShoulder -21.706707 49.261291 4.757375
LeftArm 48.043845 6.756169 -74.559218
LeftForeArm 1.857479 0.000000 119.318570
LeftHand 12.862363 -0.000000 14.032158
LeftHandThumb1 -26.253704 0.000000 33.147579
RightShoulder -4.577401 -7.774411 -18.336478
RightArm 19.786136 -34.370287 78.025239
RightForeArm -1.102060 -0.000000 110.756627
RightHand 14.986848 -0.000000 -13.868395
RightHandThumb1 -24.326973 -0.000000 -32.862282
LeftUpLeg -44.177488 1.545372 3.757582
LeftLeg 12.882186 -0.000000 -0.000000
LeftFoot 8.634970 10.759504 -19.716718
LeftToeBase -4.106378 -0.000000 0.000000
RightUpLeg 3.085591 1.245918 6.989997
RightLeg 12.498518 -0.000000 -0.000000
RightFoot -6.618925 -17.209176 2.446120
RightToeBase -28.598413 -0.000000 0.000000
517
root 4.020837 31.122372 -10.192998 18.434170 1.126495 -4.338750
Spine -8.772484 2.732468 -1.991064
Head 4.636648 -12.131788 4.104719
LeftShoulder -21.886389 49.143668 4.527276
LeftArm 48.086119 6.885954 -74.660262
LeftForeArm 1.821883 -0.000000 119.437863
LeftHand 13.062681 0.000000 14.336438
LeftHandThumb1 -26.253704 0.000000 33.147579
RightShoulder -4.602899 -7.823014 -18.372560
RightArm 19.781317 -34.413693 78.024974
RightForeArm -1.063764 -0.000000 110.898631
RightHand 14.984787 -0.000000 -13.845733
RightHandThumb1 -24.326973 -0.000000 -32.862282
LeftUpLeg -44.726421 1.576905 4.010561
LeftLeg 13.129908 -0.000000 -0.000000
LeftFoot 9.507494 10.884535 -19.458408
LeftToeBase -4.753479 -0.000000 0.000000
RightUpLeg 3.386208 1.163239 7.224934
RightLeg 11.559712 -0.000000 -0.000000
RightFoot -7.898786 -17.124309 2.774104
RightToeBase -26.902279 -0.000000 0.000000
518
root 3.974168 31.062359 -10.446029 18.355421 1.119494 -4.469320
Spine -8.672398 2.815830 -1.773128
Head 4.965430 -12.082132 3.712725
LeftShoulder -22.023293 49.057303 4.332904
LeftArm 48.142344 7.019766 -74.809158
LeftForeArm 1.954249 0.000000 119.568349
LeftHand 13.159581 0.000000 14.613835
LeftHandThumb1 -26.253704 0.000000 33.147579
RightShoulder -4.635868 -7.855967 -18.403561
RightArm 19.733221 -34.443896 78.053404
RightForeArm -1.070932 -0.000000 111.027937
RightHand 14.983815 -0.000000 -13.596879
RightHandThumb1 -24.326973 -0.000000 -32.862282
LeftUpLeg -45.276012 1.606927 4.250990
LeftLeg 13.352102 -0.000000 -0.000000
LeftFoot 10.393232 11.030909 -19.253173
LeftToeBase -5.242979 -0.000000 0.000000
RightUpLeg 3.592612 1.189883 7.420721
RightLeg 10.749294 -0.000000 -0.000000
RightFoot -9.058180 -17.049102 3.059632
RightToeBase -25.748479 -0.000000 0.000000
519
root 3.932362 31.004620 -10.698858 18.305054 1.065741 -4.562838
Spine -8.590866 2.911012 -1.608883
Head 5.240668 -12.045371 3.370207
LeftShoulder -22.152740 48.930380 4.161818
LeftArm 48.143070 7.168367 -74.964120
LeftForeArm 2.074463 0.000000 119.706528
LeftHand 13.285910 -0.000000 14.812217
LeftHandThumb1 -26.253704 0.000000 33.147579
RightShoulder -4.629752 -7.914393 -18.425201
RightArm 19.691749 -34.470326 78.061752
RightForeArm -1.126989 -0.000000 111.181065
RightHand 14.836956 0.000000 -13.508416
RightHandThumb1 -24.326973 -0.000000 -32.862282
LeftUpLeg -45.852453 1.670527 4.445231
LeftLeg 13.595716 -0.000000 -0.000000
LeftFoot 11.266708 11.163612 -19.203221
LeftToeBase -5.677351 -0.000000 0.000000
RightUpLeg 3.685473 1.330105 7.545710
RightLeg 10.095506 -0.000000 -0.000000
RightFoot -10.161396 -16.937978 3.346261
RightToeBase -24.766241 -0.000000 0.000000
520
root 3.888828 30.948397 -10.951511 18.286449 0.976513 -4.657606
Spine -8.532241 3.048864 -1.471876
Head 5.461921 -11.953036 3.067352
LeftShoulder -22.293667 48.887116 3.995440
LeftArm 48.209185 7.321076 -75.103390
LeftForeArm 2.205512 -0.000000 119.840198
LeftHand 13.427222 -0.000000 14.897774
LeftHandThumb1 -26.253704 0.000000 33.147579
RightShoulder -4.665445 -7.977037 -18.444365
RightArm 19.674387 -34.528600 78.071258
RightForeArm -1.062380 0.000000 111.278523
RightHand 14.788880 -0.000000 -13.347214
RightHandThumb1 -24.326973 -0.000000 -32.862282
LeftUpLeg -46.434138 1.738987 4.672860
LeftLeg 13.802370 -0.000000 -0.000000
LeftFoot 12.138011 11.338695 -19.253056
LeftToeBase -6.058431 -0.000000 0.000000
RightUpLeg 3.661072 1.549319 7.665593
RightLeg 9.584198 -0.000000 -0.000000
RightFoot -11.242042 -16.883192 3.612124
RightToeBase -23.784578 -0.000000 0.000000
521
root 3.845877 30.894672 -11.202923 18.271472 0.866932 -4.773896
Spine -8.465842 3.207040 -1.326450
Head 5.632919 -11.904880 2.795665
LeftShoulder -22.326578 48.769126 3.938925
LeftArm 48.155650 7.484339 -75.310452
LeftForeArm 2.318702 -0.000000 119.975973
LeftHand 13.643260 -0.000000 14.978687
LeftHandThumb1 -26.253704 0.000000 33.147579
RightShoulder -4.669462 -8.066252 -18.458370
RightArm 19.719761 -34.618218 78.045463
RightForeArm -0.973913 -0.000000 111.326471
RightHand 14.920072 -0.000000 -13.627642
RightHandThumb1 -24.326973 -0.000000 -32.862282
LeftUpLeg -47.021004 1.860141 4.916304
LeftLeg 14.035188 -0.000000 -0.000000
LeftFoot 12.996913 11.436992 -19.401758
LeftToeBase -6.355314 -0.000000 0.000000
RightUpLeg 3.552273 1.845103 7.811239
RightLeg 9.234008 -0.000000 -0.000000
RightFoot -12.353444 -16.890301 3.916938
RightToeBase -22.571351 -0.000000 0.000000
522
root 3.802662 30.843511 -11.450180 18.250823 0.728259 -4.920815
Spine -8.381145 3.347086 -1.150290
Head 5.759127 -11.772845 2.540674
LeftShoulder -22.476400 48.759655 3.760768
LeftArm 48.193659 7.644744 -75.476594
LeftForeArm 2.416945 -0.000000 120.132806
LeftHand 13.705051 -0.000000 15.107218
LeftHandThumb1 -26.253704 0.000000 33.147579
RightShoulder -4.632007 -8.131848 -18.470009
RightArm 19.734468 -34.671522 78.013316
RightForeArm -1.000889 -0.000000 111.410908
RightHand 14.628375 0.000000 -12.543336
RightHandThumb1 -24.326973 -0.000000 -32.862282
LeftUpLeg -47.614584 2.081755 5.142984
LeftLeg 14.326553 -0.000000 -0.000000
LeftFoot 13.852219 11.431449 -19.628640
LeftToeBase -6.662158 -0.000000 0.000000
RightUpLeg 3.400491 2.105305 7.970367
RightLeg 8.974966 -0.000000 -0.000000
RightFoot -13.448879 -16.804847 4.193295
RightToeBase -21.148013 -0.000000 0.000000
523
root 3.759581 30.796996 -11.691817 18.241547 0.577476 -5.055339
Spine -8.302032 3.506772 -1.013041
Head 5.830927 -11.673091 2.332674
LeftShoulder -22.553851 48.731866 3.663794
LeftArm 48.179294 7.818473 -75.657275
LeftForeArm 2.572563 0.000000 120.255846
LeftHand 13.877373 0.000000 15.191589
LeftHandThumb1 -26.253704 0.000000 33.147579
RightShoulder -4.643529 -8.230267 -18.431857
RightArm 19.812539 -34.729348 77.936798
RightForeArm -1.069517 0.000000 111.467244
RightHand 14.536001 -0.000000 -12.340555
RightHandThumb1 -24.326973 -0.000000 -32.862282
LeftUpLeg -48.208134 2.343448 5.336509
LeftLeg 14.633088 -0.000000 -0.000000
LeftFoot 14.725467 11.368939 -19.891238
LeftToeBase -6.853696 -0.000000 0.000000
RightUpLeg 3.227608 2.389147 8.120047
RightLeg 8.728197 -0.000000 -0.000000
RightFoot -14.466596 -16.803251 4.422862
RightToeBase -20.165712 -0.000000 0.000000
